<svg xmlns="http://www.w3.org/2000/svg" width="40" height="41" viewBox="0 0 40 41" fill="none"><circle cx="20" cy="20.2393" r="20" fill="white"></circle><path d="M14.1667 27.2393C13.8167 27.2393 13.5833 27.1226 13.35 26.8893C12.8833 26.4226 12.8833 25.7226 13.35 25.2559L25.0167 13.5893C25.4833 13.1226 26.1833 13.1226 26.65 13.5893C27.1167 14.0559 27.1167 14.7559 26.65 15.2226L14.9833 26.8893C14.75 27.1226 14.5167 27.2393 14.1667 27.2393Z" fill="#025BDE"></path><path d="M25.8327 26.0726C25.1327 26.0726 24.666 25.6059 24.666 24.9059V15.5726H15.3327C14.6327 15.5726 14.166 15.1059 14.166 14.4059C14.166 13.7059 14.6327 13.2393 15.3327 13.2393H25.8327C26.5327 13.2393 26.9993 13.7059 26.9993 14.4059V24.9059C26.9993 25.6059 26.5327 26.0726 25.8327 26.0726Z" fill="#025BDE"></path></svg>